<?xml version="1.0" encoding="iso-8859-1"?>
<!-- Generator: Adobe Illustrator 24.1.2, SVG Export Plug-In . SVG Version: 6.00 Build 0)  -->
<svg version="1.1" xmlns="http://www.w3.org/2000/svg" xmlns:xlink="http://www.w3.org/1999/xlink" x="0px" y="0px"
	 viewBox="0 0 48 48" style="enable-background:new 0 0 48 48;" xml:space="preserve">
<g id="Layer_10">
</g>
<g id="bubbles">
</g>
<g id="cloud">
</g>
<g id="fluent">
</g>
<g id="doodle">
	<path style="fill:#4B7BB2;" d="M39.714,10.06c-2.355-2.15-5.498-3.2-8.532-4.18c-2.165-0.7-4.371-1.39-6.646-1.4
		c-1.357,0-2.704,0.25-4.032,0.49c-2.066,0.38-4.141,0.76-6.067,1.58c-3.583,1.5-6.467,4.44-8.213,7.9S3.999,20.84,3.64,24.7
		c-0.2,2.25,0.459,4.4,1.427,6.45c0.958,2.05,2.405,3.83,3.952,5.48c0.738,0.8,1.557,1.64,1.736,2.72c0.2,1.14-0.649,3.76-0.03,4.74
		c0.619,0.97,2.365-0.31,3.463-0.66c1.098-0.35,2.126-0.99,3.273-1.07c1.257-0.09,2.445,0.51,3.662,0.84
		c1.986,0.54,4.081,0.34,6.127,0.12c3.273-0.35,6.646-0.8,9.49-2.47c2.874-1.69,4.96-4.52,6.157-7.63
		c1.198-3.11,1.567-6.48,1.527-9.81C44.365,18.55,43.297,13.34,39.714,10.06z"/>
	<path style="fill:#010101;" d="M4.144,24.698c0.393-4.223,1.236-8.342,3.641-11.921c1.121-1.668,2.543-3.159,4.196-4.307
		c1.792-1.244,3.795-1.986,5.911-2.47c2.329-0.533,4.83-1.124,7.23-0.999c2.343,0.122,4.611,0.927,6.821,1.653
		c2.034,0.668,4.072,1.406,5.877,2.579c1.686,1.095,3.026,2.588,3.975,4.358c1.912,3.563,2.263,7.821,2.099,11.794
		c-0.182,4.406-1.288,8.956-4.235,12.36c-1.357,1.568-3.041,2.792-4.973,3.552c-2.063,0.812-4.278,1.164-6.469,1.419
		c-2.288,0.267-4.702,0.609-6.963,0.001c-1.046-0.281-2.041-0.742-3.13-0.847c-1.089-0.105-2.067,0.283-3.053,0.693
		c-0.814,0.339-1.631,0.638-2.435,1.004c-0.552,0.251-1.467,0.747-1.613-0.138c-0.245-1.488,0.566-3.012,0.154-4.49
		c-0.25-0.897-0.859-1.633-1.477-2.305C8.946,35.812,8.188,35,7.504,34.121c-1.393-1.79-2.48-3.836-3.052-6.037
		C4.162,26.971,4.053,25.844,4.144,24.698c0.051-0.642-0.949-0.638-1,0c-0.381,4.804,2.529,9.079,5.648,12.427
		c0.677,0.726,1.485,1.563,1.496,2.621c0.008,0.842-0.182,1.68-0.256,2.517c-0.06,0.672-0.109,1.475,0.262,2.076
		c0.415,0.674,1.213,0.681,1.893,0.474c0.871-0.265,1.69-0.723,2.543-1.042c1.106-0.413,2.169-1.037,3.393-0.902
		c1.252,0.138,2.404,0.763,3.642,0.985c1.171,0.21,2.361,0.223,3.545,0.147c4.464-0.286,9.436-0.835,13.078-3.671
		c3.555-2.769,5.485-7.088,6.168-11.455c0.674-4.308,0.598-9.063-0.802-13.23c-0.65-1.934-1.625-3.762-3.016-5.267
		c-1.49-1.612-3.41-2.714-5.417-3.554c-2.163-0.905-4.449-1.646-6.717-2.241c-1.175-0.308-2.383-0.539-3.599-0.589
		c-1.28-0.053-2.553,0.127-3.811,0.347c-2.435,0.426-4.913,0.851-7.191,1.85c-1.929,0.846-3.669,2.113-5.121,3.634
		c-3.002,3.144-4.694,7.284-5.346,11.539c-0.17,1.106-0.288,2.22-0.392,3.334C3.085,25.339,4.085,25.335,4.144,24.698z"/>
	<path style="fill:#D6E5E5;" d="M16.009,22.089c-1.719,2.224-2.777,4.923-4.229,7.312c-0.195,0.321-0.341,0.82,0.008,0.985
		c0.225,0.106,0.488-0.031,0.694-0.168c2.028-1.351,3.714-3.17,5.91-4.259c0.501-0.249,1.056-0.461,1.617-0.398
		c0.446,0.051,0.848,0.27,1.235,0.484c1.429,0.791,2.745,1.36,3.995,2.388c0.437,0.359,0.862,0.753,1.398,0.96
		c0.975,0.376,2.127,0.034,2.938-0.6c0.812-0.635,1.353-1.52,1.872-2.388c1.548-2.588,3.339-4.999,4.808-7.628
		c0.109-0.195,0.221-0.413,0.162-0.626c-0.071-0.259-0.368-0.403-0.646-0.445c-0.939-0.14-1.787,0.502-2.496,1.102
		c-1.195,1.012-2.55,2.055-3.746,3.067c-0.364,0.308-0.737,0.621-1.188,0.796c-1.114,0.431-2.401-0.098-3.301-0.855
		c-0.9-0.756-1.68-1.558-2.607-2.284s-2.271-1.172-3.332-0.635c-0.409,0.207-0.731,0.537-1.044,0.861
		C17.297,20.546,16.674,21.228,16.009,22.089z"/>
	<path style="fill:#010101;" d="M36.816,17.828c-0.455-0.863-1.715-0.705-2.45-0.367c-1.071,0.493-1.954,1.428-2.862,2.161
		c-0.484,0.391-0.969,0.78-1.451,1.173c-0.516,0.421-1.013,0.934-1.594,1.265c-1.385,0.789-2.771-0.315-3.764-1.209
		c-0.957-0.862-1.896-1.886-3.109-2.383c-1.028-0.421-2.197-0.438-3.118,0.242c-1.079,0.796-1.993,1.975-2.813,3.026
		c-0.015,0.019-0.018,0.039-0.029,0.058c-0.016,0.016-0.035,0.024-0.049,0.043c-1.497,1.966-2.491,4.232-3.688,6.38
		c-0.353,0.634-1.264,1.734-0.564,2.447c0.758,0.771,1.915-0.352,2.508-0.807c0.938-0.719,1.829-1.497,2.781-2.198
		c0.87-0.641,2.19-1.714,3.333-1.592c0.612,0.065,1.184,0.491,1.719,0.775c0.525,0.278,1.055,0.549,1.572,0.844
		c0.485,0.277,0.962,0.573,1.407,0.912c0.508,0.386,0.967,0.859,1.545,1.144c2.15,1.059,4.165-0.676,5.266-2.389
		c1.374-2.139,2.762-4.277,4.11-6.433c0.327-0.523,0.646-1.05,0.952-1.586C36.779,18.873,37.094,18.355,36.816,17.828z
		 M35.71,18.727c-0.115,0.277-0.311,0.541-0.466,0.799c-1.186,1.985-2.523,3.874-3.745,5.836c-0.948,1.523-2.279,4.261-4.544,3.612
		c-0.565-0.162-1.002-0.604-1.448-0.962c-0.393-0.316-0.803-0.607-1.231-0.873c-0.897-0.558-1.852-1.021-2.78-1.524
		c-0.911-0.493-1.748-0.727-2.753-0.351c-0.95,0.355-1.821,0.934-2.634,1.532c-0.902,0.664-1.752,1.394-2.634,2.084
		c-0.24,0.188-0.484,0.372-0.732,0.55c-0.134,0.096-0.448,0.405-0.64,0.443c0.004-0.014,0.012-0.038,0.037-0.091
		c0.052-0.108,0.12-0.209,0.181-0.312c0.164-0.279,0.326-0.559,0.483-0.843c1.166-2.105,2.149-4.316,3.608-6.244
		c0.663-0.844,1.378-1.648,2.135-2.409c0.79-0.794,1.666-1.009,2.713-0.563c1.941,0.828,3.005,2.975,5.029,3.697
		c0.883,0.315,1.854,0.291,2.675-0.185c0.879-0.511,1.64-1.297,2.429-1.934c0.888-0.717,1.748-1.487,2.663-2.169
		c0.408-0.305,0.891-0.622,1.418-0.63C35.936,18.183,35.843,18.408,35.71,18.727z"/>
</g>
</svg>